# xmcd
#
# Track frame offsets: 
#        150
#        23160
#        42807
#        56387
#        71937
#        97725
#        115842
#        128877
#        141162
#        156235
#        174634
#        190150
#        205342
#        222760
#
# Disc length: 3274 seconds
#
# Revision: 1
# Processed by: cddbd v1.5.2PL0 Copyright (c) Steve Scherf et al.
# Submitted via: ExactAudioCopyFreeDBPlugin 1.0
#
DISCID=c60cc80e
DTITLE=Various Artist - Musical World-Poetry Of The Environment Music
DYEAR=1990
DGENRE=New Age
TTITLE0=Greatest Love Of All
TTITLE1=Right Here Waiting
TTITLE2=Perhaps Love
TTITLE3=Rain And Tears
TTITLE4=You Needed Me - I Just Fall In Love
TTITLE5=Nothings's Gonna Change My Love For You
TTITLE6=Plucky Fella
TTITLE7=Just Tell Me You Love Me
TTITLE8=The End Of The World
TTITLE9=Looking Through The Eyes Of Love
TTITLE10=The Voice Of Love
TTITLE11=Sealed With A Kiss
TTITLE12=Desperado
TTITLE13=You're My Everything
EXTD=YEAR: 1990
EXTT0=
EXTT1=
EXTT2=
EXTT3=
EXTT4=
EXTT5=
EXTT6=
EXTT7=
EXTT8=
EXTT9=
EXTT10=
EXTT11=
EXTT12=
EXTT13=
PLAYORDER=
